<svg fill="currentColor" xmlns="http://www.w3.org/2000/svg" data-name="Camada 1" viewBox="0 0 32 32" x="0px" y="0px"><path d="M17.24866,8.18481a3.09229,3.09229,0,1,0-3.092-3.09228A3.0922,3.0922,0,0,0,17.24866,8.18481Z"/><path d="M25.8805,14.99976l-.53028-.04541V12.50073a1,1,0,1,0-2,0v2.28272l-3.0852-.26367a2.01953,2.01953,0,0,1-1.0398-.89014,39.61006,39.61006,0,0,0-2.2102-3.6499,3.09,3.09,0,0,0-2.17993-.91993,5.65717,5.65717,0,0,0-2.64991.65967l-.08007.04-.06543.03516a.98607.98607,0,0,0-.94629-.73487H9.47571a3,3,0,0,0-3,3.00342s.00171,1.40479-.01684,1.40137a1,1,0,0,0-1,1,14.2113,14.2113,0,0,0,.34668,1.90527c.3435,1.39893.86645,3.50977,2.67724,3.50977h2.2124l-.43017,3a1.87622,1.87622,0,0,1-.2898.83008l-2.27,3.63965a1.758,1.758,0,0,0,.65992,2.47021,1.32169,1.32169,0,0,0,1.60009-.52l2.87989-4.04a4.16558,4.16558,0,0,0,.55-1.43017l.35986-1.56983a.4277.4277,0,0,1,.75-.18017l2.11011,2.12011.8999,4.97022a.99983.99983,0,0,0,.99.83008h.68017a1.01748,1.01748,0,0,0,1.00855-1.15039L19.495,23.53979a4.14835,4.14835,0,0,0-.65991-1.73l-1.73-2.56005a1.9858,1.9858,0,0,1-.3-1.52l.18017-.96a.385.385,0,0,1,.57984-.25,6.17916,6.17916,0,0,0,2.76,1.03613h3.02514V28.99976a1,1,0,1,0,2,0V17.53247c.512-.0581.94239-.25342,1.0503-.793l.11987-.6001A.99918.99918,0,0,0,25.8805,14.99976Z"/></svg>