<svg fill="currentColor" viewBox="0 0 156.2 227.375" xmlns="http://www.w3.org/2000/svg"><path d="M153.7,63.6c-1.3-3.8-4.7-6.4-7.6-9.1c-5.9-5.4-13-10.9-21.1-12.3c-4.6-0.8-9.3-0.1-13.6-2.3c-4.1-2.2-7-6.1-8.7-10.4  c-1.4-3.7-1.5-7.7-2.9-11.4C97.3,11.4,89.5,0.2,81.2,3.3c0.9,0.4,2,0.9,3.1,1.5C84.5,5,84.8,5.1,85,5.3c3.8,2.4,14.9,13.1,13.5,23.3  c0-6.5-5-13.5-8.7-17.4c-3-3.2-7.3-7.4-12.1-6.8c-1.8,0.2-3.4,1.3-4.5,2.8c-1.5,2-2.1,4.6-2.1,7c0.1,5.8,3.5,11.4,6.5,16.2  c2.1,3.4,4.5,6.7,7.2,9.6c2.3,2.6,5.9,4.3,7.3,7.6c1.3,3.1,0.8,7.4,1,10.6c0.2,3.3-0.5,7.1-3.1,9.3c-2.3,1.9-5.7,2-8.6,1.3  s-5.6-2.2-8.5-3.2C56.6,59.7,35.2,67.1,23.4,79c-7.8,8.2-12.4,19-15,29.9c-4.3,17.9-4.6,42.1,9.4,56.2c-0.9-0.9-2.9-1.6-4-2.4  c-3.2-2.3-7.6-3.4-10.3,0.3c-1.8,2.5-1.4,6.3,0.9,8.4c1,0.9,2.3,1.4,3.6,1.8c7,1.9,14.7,2.2,21.8,3c11.8,1.3,23.8,3,35.7,2.1  c7.2-0.5,17.5-2.4,21.9-8.9c1.7-2.6,2.3-5.8,2.3-8.9c0-3.1-0.4-6.2-0.3-9.3c0,3.9,0.7,7.7,1.1,11.5c0.3,3.6-0.1,7.6,1.9,10.8  c1.5,2.4,4,3.9,6.7,4.7c3.8,1.1,9.8,2.1,12.9-1.1c1.3-1.4,1.8-3,4.1-2.7c1.3,0.1,2.7,0.7,4,0.4c2-0.4,3.2-2.7,3-4.7  s-1.5-3.8-3.1-5.2c-2.1-1.9-4.7-3.3-6.4-5.6c-3-4-3.7-8.5-2.9-12.8c-1.8,4.7-3.5,11.7-3,20.8c-0.2-2.1-1.5-17.7,4.5-25.5  c1.9-2.5,3-5.4,5.2-7.8c2.2-2.4,4.5-4.5,6.9-6.6c3.6-3.2,7.4-6.5,10.1-10.5c3.2-4.6,3.6-9.6,4.3-15c0.4-3.4,1.4-6.7,1.3-10.1  c-0.1-2.9-1.5-5.9,1-8.3c4.9-4.8,13.7-5,12.4-14.2C153.1,67.2,154.3,65.3,153.7,63.6z"/></svg>