<svg fill="currentColor" viewBox="0 0 100 100" xmlns="http://www.w3.org/2000/svg"><path d="M57.18,13.311c0.946-4.942,5.725-8.179,10.664-7.228c4.943,0.952,8.178,5.723,7.227,10.668  c-0.948,4.938-5.721,8.176-10.663,7.226C59.465,23.025,56.229,18.251,57.18,13.311z M34.965,71.406l-16.237,1.381  c-2.745,0.255-4.765,2.691-4.507,5.438c0.256,2.75,2.692,4.768,5.44,4.51l17.963-1.524c0.276-0.026,0.541-0.09,0.798-0.155  c1.671-0.104,3.253-1.025,4.105-2.611l6.607-12.266l-8.467-5.354L34.965,71.406z M85.534,36.234  c-0.826-2.253-3.325-3.408-5.576-2.58l-10.017,3.64l-4.239-5.343c0.051-3-1.603-5.906-4.487-7.293  c-2.136-1.025-4.5-1.002-6.525-0.145l-11.872-2.122c-0.384-0.067-0.761-0.065-1.13-0.033c-1.024-0.09-2.08,0.164-2.969,0.824  l-11.007,8.131c-1.925,1.429-2.324,4.154-0.895,6.08c1.432,1.925,4.152,2.324,6.082,0.895l9.637-7.12l6.174,1.107l-7.5,15.206  c-0.309,0.641-0.805,2.146-0.875,2.25c-1.559,2.28-0.972,5.389,1.308,6.944l0.919,0.626l8.295,5.676l12.629,8.639l6.943,19.238  c0.977,2.584,3.86,3.883,6.442,2.901c2.579-0.981,3.878-3.864,2.896-6.448l-7.279-20.185c-0.314-0.821-0.832-1.496-1.457-2.022  c-0.344-0.506-0.776-0.963-1.311-1.328l-14.107-9.646l6.359-12.893l2.605,3.282c0.215,0.268,0.459,0.494,0.717,0.699  c1.146,1.346,3.038,1.917,4.798,1.276l12.857-4.68C85.204,40.981,86.359,38.487,85.534,36.234z"/></svg>