<svg fill="currentColor" viewBox="0 0 100 100" xmlns="http://www.w3.org/2000/svg"><path d="M79.866,43.289c-4.561,2.635-4.417,9.072-15.582,17.687c-2.718,2.097,2.877,13.103,0.454,15.556  c-2.468,2.499-12.35,2.623-14.739,1.26c-3.517-2.007-0.76-7.243,0.027-14.886c-7.206,0.735-9.541,0.615-16.783,0.313  c1.104,5.799,2.719,12.246,0.377,14.37c-1.909,1.731-11.198,1.919-14.103,0.022c-3.635-2.374,2.634-15.875,0.509-16.093  c-2.445-0.25-17.353,0.334-14.716-15.842c2.789,4.076,7.56,7.912,13.032,6.188c0.746-13.723,9.071-26.068,22.358-26.068  s22.684,10.307,22.754,23.079c7.867-5.908,2.084-20.426,11.514-25.857c6.712-3.866,14.563-1.869,18.307,4.257  c1.955,3.199,2.565,8.84,0.141,11.938C89.809,43.823,82.995,41.481,79.866,43.289z"/></svg>